<mxfile host="app.diagrams.net" agent="Mozilla/5.0 (Windows NT 10.0; Win64; x64) AppleWebKit/537.36 (KHTML, like Gecko) Chrome/123.0.0.0 Safari/537.36 OPR/109.0.0.0" version="24.7.6">
  <diagram name="Página-1" id="W3xKsNbPkZjYu2I3jKGl">
    <mxGraphModel dx="986" dy="524" grid="1" gridSize="10" guides="1" tooltips="1" connect="1" arrows="1" fold="1" page="1" pageScale="1" pageWidth="827" pageHeight="1169" math="0" shadow="0">
      <root>
        <mxCell id="0" />
        <mxCell id="1" parent="0" />
        <mxCell id="Ld4WtpvGC46x2ErBH1Qj-1" value="Leilão" style="swimlane;childLayout=stackLayout;horizontal=1;startSize=50;horizontalStack=0;rounded=1;fontSize=14;fontStyle=0;strokeWidth=2;resizeParent=0;resizeLast=1;shadow=0;dashed=0;align=center;arcSize=4;whiteSpace=wrap;html=1;" vertex="1" parent="1">
          <mxGeometry x="320" y="40" width="160" height="140" as="geometry" />
        </mxCell>
        <mxCell id="Ld4WtpvGC46x2ErBH1Qj-2" value="- produto: String&lt;div&gt;- preco: Double&lt;/div&gt;&lt;div&gt;- dataLimite: Date&lt;/div&gt;&lt;div&gt;- dono: Usuario&lt;/div&gt;&lt;div&gt;- lances: List&amp;lt;Lance&amp;gt;&lt;/div&gt;" style="align=left;strokeColor=none;fillColor=none;spacingLeft=4;fontSize=12;verticalAlign=top;resizable=0;rotatable=0;part=1;html=1;" vertex="1" parent="Ld4WtpvGC46x2ErBH1Qj-1">
          <mxGeometry y="50" width="160" height="90" as="geometry" />
        </mxCell>
        <mxCell id="Ld4WtpvGC46x2ErBH1Qj-5" value="Usuario" style="swimlane;childLayout=stackLayout;horizontal=1;startSize=50;horizontalStack=0;rounded=1;fontSize=14;fontStyle=0;strokeWidth=2;resizeParent=0;resizeLast=1;shadow=0;dashed=0;align=center;arcSize=4;whiteSpace=wrap;html=1;" vertex="1" parent="1">
          <mxGeometry x="70" y="50" width="160" height="120" as="geometry" />
        </mxCell>
        <mxCell id="Ld4WtpvGC46x2ErBH1Qj-6" value="- nome&lt;div&gt;- email&lt;/div&gt;" style="align=left;strokeColor=none;fillColor=none;spacingLeft=4;fontSize=12;verticalAlign=top;resizable=0;rotatable=0;part=1;html=1;" vertex="1" parent="Ld4WtpvGC46x2ErBH1Qj-5">
          <mxGeometry y="50" width="160" height="70" as="geometry" />
        </mxCell>
        <mxCell id="Ld4WtpvGC46x2ErBH1Qj-9" value="Lance" style="swimlane;childLayout=stackLayout;horizontal=1;startSize=50;horizontalStack=0;rounded=1;fontSize=14;fontStyle=0;strokeWidth=2;resizeParent=0;resizeLast=1;shadow=0;dashed=0;align=center;arcSize=4;whiteSpace=wrap;html=1;" vertex="1" parent="1">
          <mxGeometry x="320" y="250" width="160" height="120" as="geometry" />
        </mxCell>
        <mxCell id="Ld4WtpvGC46x2ErBH1Qj-10" value="- licitance: Usuario&lt;div&gt;- leilao: Leilao&lt;/div&gt;&lt;div&gt;- valor: Double&lt;/div&gt;" style="align=left;strokeColor=none;fillColor=none;spacingLeft=4;fontSize=12;verticalAlign=top;resizable=0;rotatable=0;part=1;html=1;" vertex="1" parent="Ld4WtpvGC46x2ErBH1Qj-9">
          <mxGeometry y="50" width="160" height="70" as="geometry" />
        </mxCell>
        <mxCell id="Ld4WtpvGC46x2ErBH1Qj-11" value="Job" style="swimlane;childLayout=stackLayout;horizontal=1;startSize=50;horizontalStack=0;rounded=1;fontSize=14;fontStyle=0;strokeWidth=2;resizeParent=0;resizeLast=1;shadow=0;dashed=0;align=center;arcSize=4;whiteSpace=wrap;html=1;" vertex="1" parent="1">
          <mxGeometry x="580" y="50" width="160" height="120" as="geometry" />
        </mxCell>
        <mxCell id="Ld4WtpvGC46x2ErBH1Qj-14" value="+ fecharLeilao()" style="align=left;strokeColor=none;fillColor=none;spacingLeft=4;fontSize=12;verticalAlign=top;resizable=0;rotatable=0;part=1;html=1;" vertex="1" parent="Ld4WtpvGC46x2ErBH1Qj-11">
          <mxGeometry y="50" width="160" height="70" as="geometry" />
        </mxCell>
        <mxCell id="Ld4WtpvGC46x2ErBH1Qj-12" value="+ fecharLeilao()" style="align=left;strokeColor=none;fillColor=none;spacingLeft=4;fontSize=12;verticalAlign=top;resizable=0;rotatable=0;part=1;html=1;" vertex="1" parent="Ld4WtpvGC46x2ErBH1Qj-11">
          <mxGeometry y="120" width="160" as="geometry" />
        </mxCell>
        <mxCell id="Ld4WtpvGC46x2ErBH1Qj-21" value="" style="endArrow=none;html=1;rounded=0;" edge="1" parent="1" source="Ld4WtpvGC46x2ErBH1Qj-2" target="Ld4WtpvGC46x2ErBH1Qj-9">
          <mxGeometry relative="1" as="geometry">
            <mxPoint x="330" y="160" as="sourcePoint" />
            <mxPoint x="490" y="160" as="targetPoint" />
          </mxGeometry>
        </mxCell>
        <mxCell id="Ld4WtpvGC46x2ErBH1Qj-22" value="" style="resizable=0;html=1;whiteSpace=wrap;align=left;verticalAlign=bottom;" connectable="0" vertex="1" parent="Ld4WtpvGC46x2ErBH1Qj-21">
          <mxGeometry x="-1" relative="1" as="geometry" />
        </mxCell>
        <mxCell id="Ld4WtpvGC46x2ErBH1Qj-23" value="" style="resizable=0;html=1;whiteSpace=wrap;align=right;verticalAlign=bottom;" connectable="0" vertex="1" parent="Ld4WtpvGC46x2ErBH1Qj-21">
          <mxGeometry x="1" relative="1" as="geometry" />
        </mxCell>
        <mxCell id="Ld4WtpvGC46x2ErBH1Qj-24" value="" style="endArrow=none;html=1;rounded=0;" edge="1" parent="1" source="Ld4WtpvGC46x2ErBH1Qj-14" target="Ld4WtpvGC46x2ErBH1Qj-2">
          <mxGeometry relative="1" as="geometry">
            <mxPoint x="410" y="190" as="sourcePoint" />
            <mxPoint x="410" y="290" as="targetPoint" />
          </mxGeometry>
        </mxCell>
        <mxCell id="Ld4WtpvGC46x2ErBH1Qj-25" value="" style="resizable=0;html=1;whiteSpace=wrap;align=left;verticalAlign=bottom;" connectable="0" vertex="1" parent="Ld4WtpvGC46x2ErBH1Qj-24">
          <mxGeometry x="-1" relative="1" as="geometry" />
        </mxCell>
        <mxCell id="Ld4WtpvGC46x2ErBH1Qj-26" value="" style="resizable=0;html=1;whiteSpace=wrap;align=right;verticalAlign=bottom;" connectable="0" vertex="1" parent="Ld4WtpvGC46x2ErBH1Qj-24">
          <mxGeometry x="1" relative="1" as="geometry" />
        </mxCell>
        <mxCell id="Ld4WtpvGC46x2ErBH1Qj-27" value="" style="endArrow=none;html=1;rounded=0;" edge="1" parent="1" source="Ld4WtpvGC46x2ErBH1Qj-6" target="Ld4WtpvGC46x2ErBH1Qj-2">
          <mxGeometry relative="1" as="geometry">
            <mxPoint x="610" y="145" as="sourcePoint" />
            <mxPoint x="490" y="145" as="targetPoint" />
          </mxGeometry>
        </mxCell>
        <mxCell id="Ld4WtpvGC46x2ErBH1Qj-28" value="" style="resizable=0;html=1;whiteSpace=wrap;align=left;verticalAlign=bottom;" connectable="0" vertex="1" parent="Ld4WtpvGC46x2ErBH1Qj-27">
          <mxGeometry x="-1" relative="1" as="geometry" />
        </mxCell>
        <mxCell id="Ld4WtpvGC46x2ErBH1Qj-29" value="" style="resizable=0;html=1;whiteSpace=wrap;align=right;verticalAlign=bottom;" connectable="0" vertex="1" parent="Ld4WtpvGC46x2ErBH1Qj-27">
          <mxGeometry x="1" relative="1" as="geometry" />
        </mxCell>
        <mxCell id="Ld4WtpvGC46x2ErBH1Qj-30" value="" style="endArrow=none;html=1;rounded=0;" edge="1" parent="1" source="Ld4WtpvGC46x2ErBH1Qj-6" target="Ld4WtpvGC46x2ErBH1Qj-9">
          <mxGeometry relative="1" as="geometry">
            <mxPoint x="240" y="145" as="sourcePoint" />
            <mxPoint x="330" y="145" as="targetPoint" />
            <Array as="points">
              <mxPoint x="150" y="310" />
            </Array>
          </mxGeometry>
        </mxCell>
        <mxCell id="Ld4WtpvGC46x2ErBH1Qj-31" value="" style="resizable=0;html=1;whiteSpace=wrap;align=left;verticalAlign=bottom;" connectable="0" vertex="1" parent="Ld4WtpvGC46x2ErBH1Qj-30">
          <mxGeometry x="-1" relative="1" as="geometry" />
        </mxCell>
        <mxCell id="Ld4WtpvGC46x2ErBH1Qj-32" value="" style="resizable=0;html=1;whiteSpace=wrap;align=right;verticalAlign=bottom;" connectable="0" vertex="1" parent="Ld4WtpvGC46x2ErBH1Qj-30">
          <mxGeometry x="1" relative="1" as="geometry" />
        </mxCell>
      </root>
    </mxGraphModel>
  </diagram>
</mxfile>
